# xmcd CD database file
#
# Track frame offsets:
#	150
#	14497
#	32323
#	53554
#	72510
#	91641
#	117253
#	137716
#	166755
#	186495
#	209098
#	226946
#	254723
#	271141
#	293589
#
# Disc length: 4196 seconds
#
# Revision: 0
# Processed by: cddbd v1.5.1PL2 Copyright (c) Steve Scherf et al.
# Submitted via: CDex 1.51
#
DISCID=d210620f
DTITLE=Various Artist - Pure Jazz Chillout CD 1
DYEAR=2002
DGENRE=Jazz
TTITLE0=Norah Jones - Don't Know Why
TTITLE1=Jose Feliciano - Light My Fire
TTITLE2=Grover Washington Jr. Feat Bill Withers - Just The Two Of Us
TTITLE3=Spyra Gyra - Morning Dance
TTITLE4=Dave Koz - Together Again
TTITLE5=Earl Klugh - Living Inside Your Love
TTITLE6=Fourplay - Once Upon A Love
TTITLE7=Boz Scaggs - Miss Riddie
TTITLE8=Rodney Jones - Ain't No Sunshine
TTITLE9=Bones James - Nothing But Love
TTITLE10=Kenny Burrell - Midnight Blue
TTITLE11=Karl Denson - Flute Down
TTITLE12=US3 Feat. Rahsaan and Gerhard Prescencer - Cantaloop (Flip Fantasia)
TTITLE13=Donald Byrd - Happy Music
TTITLE14=St. Germain - What You Think About
EXTD=YEAR: 2002
EXTT0=
EXTT1=
EXTT2=
EXTT3=
EXTT4=
EXTT5=
EXTT6=
EXTT7=
EXTT8=
EXTT9=
EXTT10=
EXTT11=
EXTT12=
EXTT13=
EXTT14=
PLAYORDER=
